<svg width="15" height="16" viewBox="0 0 15 16" fill="none" xmlns="http://www.w3.org/2000/svg">
<path d="M7.50167 4.28936C5.3734 4.28936 3.65672 6.00604 3.65672 8.13431C3.65672 10.2626 5.3734 11.9793 7.50167 11.9793C9.62995 11.9793 11.3466 10.2626 11.3466 8.13431C11.3466 6.00604 9.62995 4.28936 7.50167 4.28936ZM7.50167 10.634C6.12633 10.634 5.00195 9.51301 5.00195 8.13431C5.00195 6.75562 6.12298 5.63459 7.50167 5.63459C8.88037 5.63459 10.0014 6.75562 10.0014 8.13431C10.0014 9.51301 8.87702 10.634 7.50167 10.634ZM12.4007 4.13208C12.4007 4.63069 11.9992 5.0289 11.5039 5.0289C11.0053 5.0289 10.6071 4.62734 10.6071 4.13208C10.6071 3.63682 11.0086 3.23526 11.5039 3.23526C11.9992 3.23526 12.4007 3.63682 12.4007 4.13208ZM14.9473 5.04229C14.8904 3.84095 14.616 2.77681 13.7359 1.90007C12.8592 1.02333 11.795 0.748926 10.5937 0.688691C9.35555 0.618418 5.64445 0.618418 4.4063 0.688691C3.20831 0.745579 2.14417 1.01998 1.26408 1.89672C0.383993 2.77347 0.112939 3.8376 0.052705 5.03894C-0.0175683 6.27709 -0.0175683 9.98819 0.052705 11.2263C0.109593 12.4277 0.383993 13.4918 1.26408 14.3686C2.14417 15.2453 3.20496 15.5197 4.4063 15.5799C5.64445 15.6502 9.35555 15.6502 10.5937 15.5799C11.795 15.523 12.8592 15.2486 13.7359 14.3686C14.6127 13.4918 14.8871 12.4277 14.9473 11.2263C15.0176 9.98819 15.0176 6.28044 14.9473 5.04229ZM13.3477 12.5548C13.0867 13.2107 12.5814 13.716 11.9222 13.9804C10.935 14.3719 8.59258 14.2816 7.50167 14.2816C6.41076 14.2816 4.06497 14.3686 3.08115 13.9804C2.42526 13.7194 1.91997 13.2141 1.65561 12.5548C1.26408 11.5677 1.35443 9.22522 1.35443 8.13431C1.35443 7.0434 1.26743 4.69762 1.65561 3.71379C1.91662 3.0579 2.42192 2.55261 3.08115 2.28825C4.06832 1.89672 6.41076 1.98707 7.50167 1.98707C8.59258 1.98707 10.9384 1.90007 11.9222 2.28825C12.5781 2.54926 13.0834 3.05456 13.3477 3.71379C13.7393 4.70096 13.6489 7.0434 13.6489 8.13431C13.6489 9.22522 13.7393 11.571 13.3477 12.5548Z" fill="white" fill-opacity="0.5"/>
</svg>
