<svg width="857" height="1230" viewBox="0 0 857 1230" fill="none" xmlns="http://www.w3.org/2000/svg">
<path d="M236 910.9C273.9 958.3 312.5 1017.9 332.7 1053.9C357.3 1100.7 367.5 1132.3 385.8 1188.9C396.5 1219.9 406.7 1229.3 428.1 1229.3C451.5 1229.3 462.2 1213.5 470.4 1188.9C487.5 1135.8 500.7 1095.4 521.6 1056.9C602.2 904.9 733.6 796.9 807.6 648.9C807.6 648.9 856.3 558.5 856.3 431.9C856.3 313.9 808.3 231.9 808.3 231.9L236.3 911.9L236 910.9Z" fill="#34A853"/>
<path d="M42.0001 632.9C88.1001 737.9 176 829.9 236 910.9L554 533.9C554 533.9 509.1 592.7 428 592.7C337.6 592.7 264 520.7 264 429.7C264 367.1 301.3 323.7 301.3 323.7C67.3 358.5 80.3 415.2 41.3 632.7L42.0001 632.9Z" fill="#FBBC04"/>
<path d="M558 20.6001C664 54.7001 754 126.6 808 231.6L554 534.6C554 534.6 591.3 491 591.3 428.6C591.3 335.7 512.9 265.6 428.3 265.6C348 265.6 302.3 323.7 302.3 323.7C321.8 279.3 523.3 35.7001 558.3 20.7001L558 20.6001Z" fill="#4285F4"/>
<path d="M100 153.9C163.2 78.6999 274 0.899902 427 0.899902C500.9 0.899902 557 20.4999 557 20.4999L302 323.5C284.8 314.17 117 183.5 100 153.5V153.9Z" fill="#1A73E8"/>
<path d="M42.0001 632.9C42.0001 632.9 0.300049 550.1 0.300049 430.9C0.300049 317.9 44.5 218.9 100.3 154.9L302.3 324.9L42.3 632.9H42.0001Z" fill="#EA4335"/>
</svg>
