<svg width="20" height="20" viewBox="0 0 20 20" fill="none" xmlns="http://www.w3.org/2000/svg">
<path d="M13.7267 7.53632C14.0737 7.18983 14.0928 6.60759 13.7694 6.23584C13.4461 5.86409 12.9026 5.8436 12.5557 6.19008L10.0427 8.69952L7.70057 6.00707C7.37718 5.63532 6.83375 5.61484 6.48679 5.96132C6.13981 6.3078 6.1207 6.89004 6.44408 7.2618L8.78622 9.95423L6.27326 12.4637C5.9263 12.8102 5.90718 13.3924 6.23056 13.7642C6.55395 14.1359 7.09737 14.1564 7.44434 13.8099L9.95728 11.3005L12.2995 13.9929C12.6228 14.3647 13.1663 14.3852 13.5132 14.0387C13.8602 13.6922 13.8793 13.11 13.5559 12.7382L11.2138 10.0458L13.7267 7.53632Z" fill="white" fill-opacity="0.5"/>
<path fill-rule="evenodd" clip-rule="evenodd" d="M0 10C0 4.47716 4.47715 0 10 0C15.5228 0 20 4.47716 20 10C20 15.5228 15.5228 20 10 20C4.47715 20 0 15.5228 0 10ZM10 18.1818C5.48131 18.1818 1.81818 14.5187 1.81818 10C1.81818 5.48131 5.48131 1.81818 10 1.81818C14.5187 1.81818 18.1818 5.48131 18.1818 10C18.1818 14.5187 14.5187 18.1818 10 18.1818Z" fill="white" fill-opacity="0.5"/>
</svg>
