<svg width="19" height="19" viewBox="0 0 19 19" fill="none" xmlns="http://www.w3.org/2000/svg">
<path d="M18.2552 16.0622L14.7499 12.5574C14.5917 12.3992 14.3772 12.3114 14.1522 12.3114H13.5791C14.5495 11.0705 15.1261 9.50968 15.1261 7.8118C15.1261 3.77274 11.8528 0.500015 7.81303 0.500015C3.77329 0.500015 0.5 3.77274 0.5 7.8118C0.5 11.8509 3.77329 15.1236 7.81303 15.1236C9.51121 15.1236 11.0723 14.5471 12.3134 13.5769V14.1499C12.3134 14.3748 12.4013 14.5893 12.5595 14.7475L16.0648 18.2522C16.3953 18.5826 16.9297 18.5826 17.2567 18.2522L18.2517 17.2574C18.5822 16.9269 18.5822 16.3926 18.2552 16.0622ZM7.81303 12.3114C5.32731 12.3114 3.31271 10.3006 3.31271 7.8118C3.31271 5.3265 5.32379 3.31224 7.81303 3.31224C10.2988 3.31224 12.3134 5.32298 12.3134 7.8118C12.3134 10.2971 10.3023 12.3114 7.81303 12.3114Z" fill="white" fill-opacity="0.5"/>
</svg>
