<svg width="16" height="17" viewBox="0 0 16 17" fill="none" xmlns="http://www.w3.org/2000/svg">
<path d="M15.7824 14.333L12.6666 11.2177C12.5259 11.0771 12.3353 10.999 12.1353 10.999H11.6259C12.4884 9.89597 13.001 8.50861 13.001 6.99938C13.001 3.40911 10.0914 0.500015 6.50048 0.500015C2.90959 0.500015 0 3.40911 0 6.99938C0 10.5897 2.90959 13.4987 6.50048 13.4987C8.00996 13.4987 9.39756 12.9863 10.5008 12.1239V12.6332C10.5008 12.8332 10.5789 13.0238 10.7195 13.1644L13.8354 16.2797C14.1292 16.5734 14.6042 16.5734 14.8948 16.2797L15.7793 15.3954C16.0731 15.1017 16.0731 14.6268 15.7824 14.333ZM6.50048 10.999C4.29094 10.999 2.50018 9.21167 2.50018 6.99938C2.50018 4.79022 4.28781 2.99977 6.50048 2.99977C8.71001 2.99977 10.5008 4.7871 10.5008 6.99938C10.5008 9.20854 8.71314 10.999 6.50048 10.999Z" fill="#E3E3E3"/>
</svg>
